<svg height="512" viewBox="0 0 64 64" width="512" xmlns="http://www.w3.org/2000/svg"><g id="flat"><path d="m45 34v3a2 2 0 0 0 2 2 2 2 0 0 0 2-2v-3a2 2 0 0 1 2-2 2 2 0 0 1 2 2v17a6 6 0 0 1 -6 6h-5v4h5a10 10 0 0 0 10-10v-17a6 6 0 0 0 -6-6 6 6 0 0 0 -6 6z" fill="#995f5b"/><path d="m9 11 6-2h4l6 2 2 4-2 12h-16l-2-12z" fill="#ceac9a"/><path d="m28.32 31a41.617 41.617 0 0 0 9.8 5c13 5 6 18 6 25h-23.12a2 2 0 0 1 0-4h2.19c-8.56-10.88 1.81-9 1.81-9l-9-9-2 18v4h-6a2 2 0 0 1 0-4h1v-30h16l-.34 3z" fill="#ceac9a"/><g fill="#995f5b"><path d="m19 9s2.769-6.948 5-5.891c2.04.967 1 7.891 1 7.891z"/><path d="m15 9s-2.769-6.948-5-5.891c-2.04.967-1 7.891-1 7.891z"/><path d="m8 57h6a0 0 0 0 1 0 0v4a0 0 0 0 1 0 0h-6a2 2 0 0 1 -2-2 2 2 0 0 1 2-2z"/><path d="m31 61h-9.882a3.081 3.081 0 0 1 -3.06-2.4 3.005 3.005 0 0 1 2.942-3.6h10a1 1 0 0 1 1 1 1 1 0 0 1 -1 1h-10a1 1 0 0 0 0 2h10a1 1 0 0 1 1 1 1 1 0 0 1 -1 1z"/></g><path d="m12 14h2v2h-2z" fill="#394d5c"/><path d="m20 14h2v2h-2z" fill="#394d5c"/><path d="m28.32 31h-19.32v-4h16s.05 1.58 3.32 4z" fill="#9c2d20"/><circle cx="16" cy="33" fill="#fcf05a" r="2"/><path d="m20 21a1 1 0 0 1 -2 0v-2h-2v2a1 1 0 0 1 -2 0h-2a2.987 2.987 0 0 0 5 2.219 2.987 2.987 0 0 0 5-2.219z" fill="#394d5c"/><path d="m15 18c0 1.1.895 3 2 3s2-1.895 2-3-.895-1-2-1-2-.1-2 1z" fill="#301a12"/></g></svg>