<svg height="512" viewBox="0 0 52 60" width="512" xmlns="http://www.w3.org/2000/svg"><g id="Page-1" fill="none" fill-rule="evenodd"><g id="042---Bacteria" fill-rule="nonzero" transform="translate(0 -1)"><path id="Shape" d="m28.8 7.6c-.3808256.00207881-.7297741-.21233064-.9-.553l-1.8-3.6c-.2468713-.49429485-.0462949-1.09512872.448-1.342s1.0951287-.04629485 1.342.448l1.8 3.6c.1545455.30926678.1383796.6764236-.0427493.97091061-.1811288.29448701-.5015228.47452363-.8472507.47608939z" fill="#de4d60"/><path id="Shape" d="m22.4 13.2c-.1543931.001545-.307047-.0326823-.446-.1l-4.4-2.2c-.4942949-.2468713-.6948713-.8477051-.448-1.342.2468713-.49429485.8477051-.69487128 1.342-.448l4.4 2.2c.4098463.2099351.6233472.6726076.5171381 1.1206772s-.5046672.7656851-.9651381.7693228z" fill="#de4d60"/><path id="Shape" d="m21 20h-5c-.5522847 0-1-.4477153-1-1s.4477153-1 1-1h5c.5522847 0 1 .4477153 1 1s-.4477153 1-1 1z" fill="#de4d60"/><path id="Shape" d="m16.691 32.462c-.1968509-.00035-.3892201-.0587913-.553-.168l-3.693-2.462c-.4595009-.306518-.583518-.9274991-.277-1.387.3065181-.4595009.9274991-.583518 1.387-.277l3.692 2.462c.3668102.2445875.5301634.700538.4021268 1.122414-.1280366.4218761-.5172499.7101263-.9581268.709586z" fill="#de4d60"/><path id="Shape" d="m9 40c-.26519481-.0000566-.51950727-.1054506-.707-.293l-4-4c-.37897221-.3923789-.37355237-1.0160848.01218142-1.4018186.3857338-.3857338 1.00943969-.3911536 1.40181858-.0121814l4 4c.28590792.2859943.3714219.7160366.21667798 1.0896546-.15474393.3736179-.51928208.6172591-.92367798.6173454z" fill="#de4d60"/><path id="Shape" d="m6 48h-5c-.55228475 0-1-.4477153-1-1s.44771525-1 1-1h5c.55228475 0 1 .4477153 1 1s-.44771525 1-1 1z" fill="#de4d60"/><path id="Shape" d="m16 61c-.5522847 0-1-.4477153-1-1v-5c0-.5522847.4477153-1 1-1s1 .4477153 1 1v5c0 .5522847-.4477153 1-1 1z" fill="#de4d60"/><path id="Shape" d="m6 58c-.4043959-.0000863-.76893405-.2437275-.92367798-.6173454-.15474393-.373618-.06922994-.8036603.21667798-1.0896546l3-3c.39237889-.3789722 1.01608478-.3735524 1.40181858.0121814.38573382.3857338.39115362 1.0094397.01218142 1.4018186l-3 3c-.18749273.1875494-.44180519.2929434-.707.293z" fill="#de4d60"/><path id="Shape" d="m26 60c-.3808256.0020788-.7297741-.2123306-.9-.553l-2.4-4.8c-.2416824-.4932118-.0403425-1.0890358.4509705-1.334555.4913131-.2455193 1.0886883-.0488295 1.3380295.440555l2.4 4.8c.1544684.3091081.1384047.6760608-.0424841.9704883s-.5009661.4746021-.8465159.4765117z" fill="#de4d60"/><path id="Shape" d="m39 53c-.2651948-.0000566-.5195073-.1054506-.707-.293l-4-4c-.3789722-.3923789-.3735524-1.0160848.0121814-1.4018186s1.0094397-.3911536 1.4018186-.0121814l4 4c.2859079.2859943.3714219.7160366.216678 1.0896546-.1547439.3736179-.5192821.6172591-.923678.6173454z" fill="#de4d60"/><path id="Shape" d="m47 41h-5c-.5522847 0-1-.4477153-1-1s.4477153-1 1-1h5c.5522847 0 1 .4477153 1 1s-.4477153 1-1 1z" fill="#de4d60"/><path id="Shape" d="m51 28h-4c-.5522847 0-1-.4477153-1-1s.4477153-1 1-1h4c.5522847 0 1 .4477153 1 1s-.4477153 1-1 1z" fill="#de4d60"/><path id="Shape" d="m46.8 18.4c-.4896205-.0011079-.9064337-.3565688-.9848341-.8398729-.0784005-.4833041.2046714-.9522988.6688341-1.1081271l4.2-1.4c.5246705-.174522 1.091478.1093295 1.266.634s-.1093295 1.091478-.634 1.266l-4.2 1.4c-.1020785.032839-.2087744.0490459-.316.048z" fill="#de4d60"/><path id="Shape" d="m43.5 10.5c-.4043959-.0000863-.7689341-.2437275-.923678-.61734544s-.0692299-.80366031.216678-1.08965456l2.5-2.5c.2510745-.25995658.6228779-.3642126.9725073-.27269716.3496295.09151544.6226744.3645604.7141899.71418984.0915154.34962943-.0127406.72143285-.2726972.97250732l-2.5 2.5c-.1874927.1875494-.4418052.2929434-.707.293z" fill="#de4d60"/><path id="Shape" d="m37.77 7.942c-.0818732.00016931-.1634661-.00956811-.243-.029-.5357071-.13421744-.8611901-.67728603-.727-1.213l1.23-4.941c.0766323-.35674294.3414867-.64342842.6910565-.74801809.3495697-.10458968.7283566-.0104787.9883285.2455538.259972.25603251.3598553.63333838.260615.98446429l-1.231 4.943c-.1109803.44496676-.5104025.75741462-.969.758z" fill="#de4d60"/><path id="Shape" d="m49 19.315v5.54c.0083557 8.805758-3.5136555 17.2473466-9.778 23.436-6.2669837 6.2361756-14.7539257 9.7284291-23.595 9.709-6.20529026.0951199-11.35917329-4.7657626-11.627-10.966-.20892824-4.3224536 1.82008778-8.4484846 5.371-10.922 5.459-3.632 9.629-8.732 9.629-17.112.0107398-4.1003416 1.6953491-8.0184901 4.6637504-10.84718422 2.9684013-2.82869408 6.9631507-4.32260625 11.0592496-4.13581578 8.0669915.4975517 14.3369537 7.2159015 14.277 15.298z" fill="#ff5364"/><path id="Shape" d="m30 51.289c-.4554706.0005836-.8537921-.3066889-.9688491-.747388-.1150571-.4406991.0822226-.9034703.4798491-1.125612 2.2668147-1.2679837 4.3491846-2.8406121 6.189-4.674 2.8901437-2.8473809 5.1235193-6.2916391 6.544-10.092.1932997-.5174908.7695092-.7802997 1.287-.587s.7802997.7695092.587 1.287c-1.5205714 4.0711444-3.9123536 7.7608644-7.008 10.811-1.9689853 1.9608563-4.1969764 3.6431208-6.622 5-.1490535.0836731-.3170671.1277423-.488.128z" fill="#fff"/><path id="Shape" d="m17.787 35c-.388318-.0002735-.741368-.2253259-.9055351-.5772351s-.1097652-.7670397.1395351-1.0647649c1.6637267-1.9730609 2.9461785-4.2382059 3.782-6.68.1150395-.3383305.4018376-.589588.7523602-.6591261s.7115169.0532076.947.322.3096793.6427956.1946398.9811261c-.9153804 2.675478-2.3198803 5.1575977-4.142 7.32-.1902921.2272557-.4715947.3583837-.768.358z" fill="#fff"/><g fill="#338f7c"><path id="Shape" d="m34 12c-.5522847 0-1-.4477153-1-1v-2c0-.55228475.4477153-1 1-1s1 .44771525 1 1v2c0 .5522847-.4477153 1-1 1z"/><path id="Shape" d="m29.5 13.206c-.3576137.0003484-.6881932-.1902972-.867-.5l-1-1.732c-.1814844-.3095704-.1831833-.6926495-.0044519-1.00381742.1787315-.31116795.5104885-.50271357.8693336-.50192468.3588451.00078888.6897567.19379132.8671183.5057421l1 1.732c.1785415.3092425.1786393.6902222.0002566.9995563s-.5081742.5000777-.8652566.5004437z"/><path id="Shape" d="m26.205 16.5c-.1755887.0003718-.3481299-.0458692-.5-.134l-1.732-1c-.3119508-.1773616-.5049532-.5082732-.5057421-.8671183s.1907567-.6906021.5019247-.8693336c.3111679-.1787314.694247-.1770325 1.0038174.0044519l1.732 1c.3919413.2263139.5830208.6876562.4658809 1.1248223-.1171398.4371661-.5132928.7411578-.9658809.7411777z"/><path id="Shape" d="m25 21h-2c-.5522847 0-1-.4477153-1-1s.4477153-1 1-1h2c.5522847 0 1 .4477153 1 1s-.4477153 1-1 1z"/><path id="Shape" d="m24.475 26.5c-.4525881-.0000199-.8487411-.3040116-.9658809-.7411777-.1171399-.4371661.0739396-.8985084.4658809-1.1248223l1.732-1c.47786-.2716903 1.0854205-.1067416 1.3602745.3693057.2748541.4760473.1139391 1.0846885-.3602745 1.3626943l-1.732 1c-.1520167.0877772-.324461.1339923-.5.134z"/><path id="Shape" d="m28.5 30.526c-.3570824-.000366-.6868739-.1911096-.8652566-.5004437s-.1782849-.6903138.0002566-.9995563l1-1.732c.1773616-.3119508.5082732-.5049532.8671183-.5057421s.6906021.1907567.8693336.5019247c.1787314.3111679.1770325.694247-.0044519 1.0038174l-1 1.732c-.1788068.3097028-.5093863.5003484-.867.5z"/><path id="Shape" d="m34 32c-.5522847 0-1-.4477153-1-1v-2c0-.5522847.4477153-1 1-1s1 .4477153 1 1v2c0 .5522847-.4477153 1-1 1z"/><path id="Shape" d="m39.5 30.526c-.3576137.0003484-.6881932-.1902972-.867-.5l-1-1.732c-.1814844-.3095704-.1831833-.6926495-.0044519-1.0038174.1787315-.311168.5104885-.5027136.8693336-.5019247s.6897567.1937913.8671183.5057421l1 1.732c.1785415.3092425.1786393.6902222.0002566.9995563s-.5081742.5000777-.8652566.5004437z"/><path id="Shape" d="m43.525 26.5c-.175539-.0000077-.3479833-.0462228-.5-.134l-1.732-1c-.3119508-.1773616-.5049532-.5082732-.5057421-.8671183s.1907567-.6906021.5019247-.8693336c.3111679-.1787314.694247-.1770325 1.0038174.0044519l1.732 1c.3919413.2263139.5830208.6876562.4658809 1.1248223-.1171398.4371661-.5132928.7411578-.9658809.7411777z"/><path id="Shape" d="m45 21h-2c-.5522847 0-1-.4477153-1-1s.4477153-1 1-1h2c.5522847 0 1 .4477153 1 1s-.4477153 1-1 1z"/><path id="Shape" d="m41.8 16.5c-.4525881-.0000199-.8487411-.3040116-.9658809-.7411777-.1171399-.4371661.0739396-.8985084.4658809-1.1248223l1.732-1c.3095704-.1814844.6926495-.1831833 1.0038174-.0044519.311168.1787315.5027136.5104885.5019247.8693336s-.1937913.6897567-.5057421.8671183l-1.732 1c-.1518701.0881308-.3244113.1343718-.5.134z"/><path id="Shape" d="m38.5 13.206c-.3570824-.000366-.6868739-.1911096-.8652566-.5004437s-.1782849-.6903138.0002566-.9995563l1-1.732c.1773616-.31195078.5082732-.50495322.8671183-.5057421.3588451-.00078889.6906021.19075673.8693336.50192468.1787314.31116792.1770325.69424702-.0044519 1.00381742l-1 1.732c-.1788068.3097028-.5093863.5003484-.867.5z"/><path id="Shape" d="m17 41c-.5522847 0-1-.4477153-1-1v-2c0-.5522847.4477153-1 1-1s1 .4477153 1 1v2c0 .5522847-.4477153 1-1 1z"/><path id="Shape" d="m14 41.8c-.3576137.0003484-.6881932-.1902972-.867-.5l-1-1.732c-.2716903-.47786-.1067416-1.0854205.3693057-1.3602745.4760473-.2748541 1.0846885-.1139391 1.3626943.3602745l1 1.732c.1785415.3092425.1786393.6902222.0002566.9995563s-.5081742.5000777-.8652566.5004437z"/><path id="Shape" d="m11.8 44c-.1755887.0003718-.3481299-.0458692-.5-.134l-1.732-1c-.47421361-.2780058-.63512861-.886647-.36027453-1.3626943s.88241453-.640996 1.36027453-.3693057l1.732 1c.3919413.2263139.5830208.6876562.4658809 1.1248223-.1171398.4371661-.5132928.7411578-.9658809.7411777z"/><path id="Shape" d="m11 47h-2c-.55228475 0-1-.4477153-1-1s.44771525-1 1-1h2c.5522847 0 1 .4477153 1 1s-.4477153 1-1 1z"/><path id="Shape" d="m10.073 51c-.45258806-.0000199-.84874105-.3040116-.96588095-.7411777s.07393969-.8985084.46588095-1.1248223l1.732-1c.3095704-.1814844.6926495-.1831833 1.0038174-.0044519.311168.1787315.5027136.5104885.5019247.8693336s-.1937913.6897567-.5057421.8671183l-1.732 1c-.1520167.0877772-.324461.1339923-.5.134z"/><path id="Shape" d="m13 53.928c-.3570824-.000366-.6868739-.1911096-.8652566-.5004437s-.1782849-.6903138.0002566-.9995563l1-1.732c.2780058-.4742136.886647-.6351286 1.3626943-.3602745.4760473.274854.640996.8824145.3693057 1.3602745l-1 1.732c-.1788068.3097028-.5093863.5003484-.867.5z"/><path id="Shape" d="m17 55c-.5522847 0-1-.4477153-1-1v-2c0-.5522847.4477153-1 1-1s1 .4477153 1 1v2c0 .5522847-.4477153 1-1 1z"/><path id="Shape" d="m21 53.928c-.3576137.0003484-.6881932-.1902972-.867-.5l-1-1.732c-.1814844-.3095704-.1831833-.6926495-.0044519-1.0038174.1787315-.311168.5104885-.5027136.8693336-.5019247s.6897567.1937913.8671183.5057421l1 1.732c.1785415.3092425.1786393.6902222.0002566.9995563s-.5081742.5000777-.8652566.5004437z"/><path id="Shape" d="m23.927 51c-.175539-.0000077-.3479833-.0462228-.5-.134l-1.732-1c-.4742136-.2780058-.6351286-.886647-.3602745-1.3626943.274854-.4760473.8824145-.640996 1.3602745-.3693057l1.732 1c.3919413.2263139.5830208.6876562.4658809 1.1248223-.1171398.4371661-.5132928.7411578-.9658809.7411777z"/><path id="Shape" d="m25 47h-2c-.5522847 0-1-.4477153-1-1s.4477153-1 1-1h2c.5522847 0 1 .4477153 1 1s-.4477153 1-1 1z"/><path id="Shape" d="m22.2 44c-.4525881-.0000199-.8487411-.3040116-.9658809-.7411777-.1171399-.4371661.0739396-.8985084.4658809-1.1248223l1.732-1c.47786-.2716903 1.0854205-.1067416 1.3602745.3693057.2748541.4760473.1139391 1.0846885-.3602745 1.3626943l-1.732 1c-.1518701.0881308-.3244113.1343718-.5.134z"/><path id="Shape" d="m20 41.8c-.3570824-.000366-.6868739-.1911096-.8652566-.5004437s-.1782849-.6903138.0002566-.9995563l1-1.732c.2780058-.4742136.886647-.6351286 1.3626943-.3602745.4760473.274854.640996.8824145.3693057 1.3602745l-1 1.732c-.1788068.3097028-.5093863.5003484-.867.5z"/></g><circle id="Oval" cx="17" cy="46" fill="#26b899" r="6"/><circle id="Oval" cx="15" cy="45" fill="#f8e9af" r="1"/><circle id="Oval" cx="18" cy="47" fill="#f8e9af" r="1"/><circle id="Oval" cx="34" cy="20" fill="#26b899" r="9"/><circle id="Oval" cx="31" cy="17" fill="#f8e9af" r="1"/><circle id="Oval" cx="32" cy="24" fill="#f8e9af" r="1"/><circle id="Oval" cx="37" cy="19" fill="#f8e9af" r="1"/></g></g></svg>