<svg id="Capa_1" enable-background="new 0 0 508 508" height="512" viewBox="0 0 508 508" width="512" xmlns="http://www.w3.org/2000/svg"><g><path d="m341.735 331.113c-18.031-17.892-29.476-42.407-30.39-69.593-.201-10.843-.306-29.813-.306-40.649h-132c0 9.646.061 27.43.184 37.088 0 29.214-12.165 55.626-31.703 74.372 14.614 3.344 29.372 5.891 44.205 7.663 2.583 53.032 7.04 106.001 13.234 158.006h116.63c-8.1-52.469-13.86-105.719-17.18-159.619 12.523-1.86 24.979-4.278 37.326-7.268z" fill="#fff3da"/><path d="m79.523 229h349.032c25.724 0 44.714-23.922 38.982-48.999-22.253-97.361-109.392-170.001-213.498-170.001s-191.245 72.64-213.497 170.001c-5.732 25.077 13.257 48.999 38.981 48.999z" fill="#ff9eb1"/><path d="m135.039 164.5c0 12.426-10.074 22.5-22.5 22.5s-22.5-10.074-22.5-22.5 10.074-22.5 22.5-22.5 22.5 10.074 22.5 22.5zm112-58.5c-14.359 0-26 11.641-26 26s11.641 26 26 26 26-11.641 26-26-11.64-26-26-26zm-83-27c-11.046 0-20 8.954-20 20s8.954 20 20 20 20-8.954 20-20-8.954-20-20-20zm159-13c-11.046 0-20 8.954-20 20s8.954 20 20 20 20-8.954 20-20-8.954-20-20-20zm59 60c-17.121 0-31 13.879-31 31s13.879 31 31 31 31-13.879 31-31-13.879-31-31-31z" fill="#fff"/><path d="m112.539 197c-17.921 0-32.5-14.58-32.5-32.5s14.579-32.5 32.5-32.5 32.5 14.58 32.5 32.5-14.579 32.5-32.5 32.5zm0-45c-6.893 0-12.5 5.607-12.5 12.5s5.607 12.5 12.5 12.5 12.5-5.607 12.5-12.5-5.607-12.5-12.5-12.5zm134.5 16c-19.851 0-36-16.149-36-36s16.149-36 36-36 36 16.149 36 36-16.149 36-36 36zm0-52c-8.822 0-16 7.178-16 16s7.178 16 16 16 16-7.178 16-16-7.178-16-16-16zm-83 13c-16.542 0-30-13.458-30-30s13.458-30 30-30 30 13.458 30 30-13.458 30-30 30zm0-40c-5.514 0-10 4.486-10 10s4.486 10 10 10 10-4.486 10-10-4.486-10-10-10zm159 27c-16.542 0-30-13.458-30-30s13.458-30 30-30 30 13.458 30 30-13.458 30-30 30zm0-40c-5.514 0-10 4.486-10 10s4.486 10 10 10 10-4.486 10-10-4.486-10-10-10zm59 122c-22.607 0-41-18.393-41-41s18.393-41 41-41 41 18.393 41 41-18.392 41-41 41zm0-62c-11.579 0-21 9.42-21 21s9.421 21 21 21 21-9.42 21-21-9.421-21-21-21zm95.25 41.78c-12.829-53.235-39.086-86.214-51.59-100.36-8.826-9.984-23.816 3.266-14.99 13.25 23.08 26.11 39.484 57.742 47.08 91.56 4.702 20.931-12.04 36.77-29.23 36.77h-349.04c-17.77 0-33.899-16.709-29.229-36.77 22.213-95.434 105.599-162.23 203.709-162.23h.04c30.899 0 60.651 6.576 88.41 19.56 12.068 5.645 20.538-12.466 8.47-18.11 0-.01 0-.01-.01-.01-14.85-6.94-49.838-21.44-96.85-21.44h-.02c-93 0-195.176 60.663-223.25 177.77-7.363 30.714 16.25 61.23 48.69 61.23h89.593c.028 6.349.073 12.708.153 19.022-.017 25.572-10.289 49.284-28.626 67.093-6.591 6.401-1.946 15.498 4.692 16.964 12.212 2.697 24.508 5.036 36.902 6.75 2.619 50.13 6.919 100.665 12.837 150.353.599 5.03 4.864 8.817 9.93 8.817h116.63c7.087 0 10.813-6.557 9.883-11.525-7.608-49.286-13.15-99.59-16.498-149.669 9.772-1.658 19.442-3.629 29.113-5.973 8.95-2.169 9.291-12.204 4.691-16.818-16.786-16.841-26.62-39.031-27.436-62.755-.138-7.468-.226-14.915-.27-22.26h107.526c35.472.001 55.343-33.612 48.69-61.219zm-263.432 310.22c-5.211-45.299-9.065-91.237-11.517-136.865 22.958 2.446 63.216 2.769 92.805-1.434 3.133 46.24 8.092 92.656 14.822 138.299zm87.491-226.294c.001.05.002.1.004.15.771 22.983 8.436 44.858 21.887 63.101-12.268 2.448-24.654 4.326-37.102 5.65-1.822-7.441-3.337-15.765-4.513-24.875-.708-5.478-5.722-9.349-11.198-8.637-5.478.707-9.345 5.72-8.638 11.198 1.111 8.604 2.514 16.618 4.187 23.964-33.259 1.91-66.762-.156-99.497-6.214 14.77-19.479 22.746-43.098 22.746-68.083 0-.042 0-.085-.001-.127-.08-6.25-.124-12.546-.152-18.832h112.001c.044 7.491.134 15.088.276 22.705zm83.842-198.111c5.521 0 9.997-4.476 9.997-9.998 0-5.521-4.476-9.997-9.997-9.997s-9.997 4.476-9.997 9.997c0 5.522 4.476 9.998 9.997 9.998z"/></g></svg>