<?xml version="1.0" encoding="utf-8"?>
<!-- Generator: Adobe Illustrator 24.2.1, SVG Export Plug-In . SVG Version: 6.00 Build 0)  -->
<svg version="1.1" id="Layer_1" xmlns="http://www.w3.org/2000/svg" xmlns:xlink="http://www.w3.org/1999/xlink" x="0px" y="0px"
	 viewBox="0 0 425.2 425.2" style="enable-background:new 0 0 425.2 425.2;" xml:space="preserve">
<style type="text/css">
	.st0{fill:#89BF4E;}
	.st1{fill:#B25A9F;}
	.st2{fill:#EC676A;}
	.st3{fill:#FDC331;}
	.st4{fill:#44C1F0;}
	.st5{fill-rule:evenodd;clip-rule:evenodd;}
</style>
<g>
	<path class="st0" d="M164.58,325.01c-23.22,23.18-40.01,46.61-77.06,62.89c-31.2,13.68-51.32,10.97-60.36-8.13
		c1.21,2.83,2.61,5.58,4.21,8.24c19.28,32.1,60.93,42.49,93.04,23.21l128.55-77.21C245.19,293.92,205.79,283.85,164.58,325.01z"/>
	<path class="st1" d="M330.45,246.76c-29.26-4.72-41.39-6.17-59.7-4.35c-8.13,0.81-17.48,2.26-30.1,4.35
		c-41.07,6.82-95.02,60.22-133.94,56.91c-32.83-2.78-61.18-18.5-85.03-47.15v86.72v9.24c0.15,4.73,0.61,9.01,1.28,12.98
		c0.29,1.55,0.56,3.1,0.95,4.62c0.13,0.56,0.27,1.12,0.42,1.66c0.78,2.73,1.7,5.41,2.82,8.03c9.05,19.1,29.17,21.81,60.36,8.13
		c37.05-16.29,53.85-39.71,77.06-62.89c41.21-41.16,80.61-31.09,88.37,9l30.63-18.4l87.04-52.28c2.22-1.33,4.31-2.85,6.35-4.42
		C363.21,253.96,347.83,249.57,330.45,246.76z"/>
	<path class="st2" d="M367.96,145.58l-12.13-6.56c-38.49,3.72-77.87,5.8-97.7,14.9c-50.2,23.03-52.23,24.03-132.93,71.82
		c-1.27,0.75-2.39,1.42-3.7,2.19c-39.47,23.38-72.72,22.86-99.81-1.34v29.93c23.85,28.64,52.2,44.36,85.03,47.15
		c38.91,3.31,92.86-50.09,133.94-56.91c12.62-2.1,21.96-3.55,30.1-4.35c18.31-1.82,30.44-0.37,59.7,4.35
		c17.38,2.81,32.76,7.2,46.52,12.15c7.52-5.78,13.82-13.04,18.36-21.43C413.15,204.54,400.89,163.4,367.96,145.58z"/>
	<path class="st3" d="M204.45,57.16c-20.03,7.08-36.54,17.79-49.3,32.37c-16.97,19.4-24.97,35.78-64.13,84.39
		c-21.2,26.3-44.34,34.36-69.33,24.84v26.99v0.86c27.09,24.19,60.34,24.71,99.81,1.34c1.31-0.78,2.43-1.44,3.7-2.19
		c80.7-47.79,82.73-48.8,132.93-71.82c19.83-9.1,59.2-11.18,97.7-14.9L204.45,57.16z"/>
	<path class="st4" d="M156.53,31.24l-34.79-18.81v0.02c-9.9-5.36-20.99-8.16-32.25-8.16c-22.09,0-41.65,10.61-54.03,26.96
		c-8.61,11.37-13.78,25.49-13.78,40.85v126.66c25,9.52,48.13,1.46,69.33-24.84c39.16-48.61,47.16-64.98,64.13-84.39
		c12.76-14.58,29.26-25.29,49.3-32.37L156.53,31.24z"/>
</g>
<path class="st5" d="M170.82,390.95c0.04-0.22,0-0.59,0.13-0.63c0.48-0.18,0.22,0.2,0.2,0.35c-0.03,0.13-0.08,0.25-0.14,0.36
	L170.82,390.95L170.82,390.95z"/>
</svg>
